<?xml version="1.0" encoding="UTF-8" standalone="no"?>
<!DOCTYPE svg PUBLIC "-//W3C//DTD SVG 20010904//EN"
              "http://www.w3.org/TR/2001/REC-SVG-20010904/DTD/svg10.dtd">

<svg xmlns="http://www.w3.org/2000/svg"
     width="2.79667in" height="2.79667in"
     viewBox="0 0 839 839">
  <path id="Selection #1"
        fill="white" stroke="black" stroke-width="1"
        d="M 96.00,699.00
           C 96.00,699.00 38.00,699.00 38.00,699.00
             30.84,698.99 20.30,698.04 14.00,694.59
             4.09,689.15 1.97,681.19 0.58,671.00
             -1.26,657.53 4.57,624.97 7.88,611.00
             15.39,579.35 27.11,541.41 42.86,513.00
             42.86,513.00 63.45,476.00 63.45,476.00
             69.71,465.51 74.98,462.86 75.00,450.00
             75.03,433.98 72.47,411.16 83.04,398.09
             96.22,381.80 115.32,384.03 134.00,384.00
             146.70,383.98 149.36,378.90 159.00,371.42
             159.00,371.42 177.00,358.67 177.00,358.67
             178.86,357.43 183.95,354.52 184.77,352.62
             185.75,350.36 183.76,347.01 182.74,345.00
             182.74,345.00 172.85,328.00 172.85,328.00
             172.85,328.00 148.58,286.00 148.58,286.00
             143.95,278.03 137.03,267.85 134.76,259.00
             134.01,256.07 134.14,254.82 133.84,252.00
             131.69,232.03 137.33,212.38 158.00,204.47
             161.83,203.00 171.81,201.88 176.00,202.04
             180.43,202.21 190.00,203.35 194.00,204.93
             210.15,211.27 217.70,228.80 225.85,243.00
             225.85,243.00 246.72,279.00 246.72,279.00
             246.72,279.00 260.01,302.00 260.01,302.00
             261.81,304.99 264.39,309.31 268.00,310.22
             271.15,311.01 278.73,307.78 282.00,306.74
             282.00,306.74 309.00,299.37 309.00,299.37
             334.74,292.86 352.75,290.34 379.00,287.83
             379.00,287.83 401.00,286.00 401.00,286.00
             401.00,286.00 436.00,286.00 436.00,286.00
             436.00,286.00 448.00,286.91 448.00,286.91
             448.00,286.91 473.00,288.83 473.00,288.83
             479.86,289.35 482.55,285.91 485.12,280.00
             488.02,273.32 490.42,258.66 491.75,251.00
             491.75,251.00 507.20,166.00 507.20,166.00
             509.71,152.89 510.45,137.64 519.67,127.17
             530.79,114.55 555.63,113.17 569.00,122.79
             578.38,129.53 585.44,143.50 586.00,155.00
             598.77,153.96 601.95,150.68 616.00,155.70
             619.81,157.06 622.83,158.67 625.91,161.32
             627.61,162.78 629.66,165.65 632.09,165.42
             634.00,165.24 641.42,159.35 644.00,157.88
             651.27,153.73 655.85,153.04 664.00,152.74
             685.26,151.96 700.14,167.00 700.96,188.00
             700.96,188.00 700.00,202.17 700.00,202.17
             706.36,201.71 708.31,200.61 715.00,202.17
             725.57,205.09 735.95,215.20 738.00,226.00
             747.56,224.52 755.56,219.64 766.00,220.10
             774.37,220.47 783.12,221.81 789.99,226.93
             801.52,235.51 804.21,250.52 802.27,264.00
             801.73,267.72 801.70,269.47 800.02,273.00
             795.51,282.48 779.80,299.33 772.42,308.00
             772.42,308.00 731.25,357.00 731.25,357.00
             731.25,357.00 709.00,384.00 709.00,384.00
             726.21,384.00 754.61,381.53 769.00,391.10
             781.20,399.22 783.93,413.28 784.00,427.00
             784.00,427.00 784.00,483.00 784.00,483.00
             784.00,485.68 783.90,488.40 784.63,491.00
             784.63,491.00 801.14,524.00 801.14,524.00
             814.92,554.92 820.93,572.19 829.13,605.00
             834.49,626.50 838.26,648.81 838.00,671.00
             837.85,683.29 831.96,692.86 820.00,696.90
             815.50,698.42 807.81,698.99 803.00,699.00
             803.00,699.00 775.00,699.00 775.00,699.00
             758.99,699.03 765.16,707.54 750.00,715.68
             734.92,723.77 714.72,723.19 698.00,723.00
             692.83,722.94 683.24,722.42 679.65,718.47
             675.67,714.09 676.00,704.62 676.00,699.00
             676.00,699.00 620.00,699.00 620.00,699.00
             620.00,705.53 620.19,714.91 614.79,719.57
             611.11,722.75 601.80,722.99 597.00,723.00
             597.00,723.00 552.00,723.00 552.00,723.00
             547.59,722.94 539.54,722.42 536.13,719.57
             530.80,715.11 531.00,705.38 531.00,699.00
             531.00,699.00 485.00,699.00 485.00,699.00
             482.46,699.01 479.34,698.81 477.04,700.02
             472.32,702.52 471.15,708.96 463.99,714.21
             454.20,721.39 441.85,723.43 430.00,723.43
             418.48,723.43 406.50,721.10 397.00,714.21
             389.11,708.49 388.94,702.66 383.96,700.02
             381.67,698.81 378.54,699.01 376.00,699.00
             376.00,699.00 331.00,699.00 331.00,699.00
             332.60,702.79 333.74,704.77 333.96,709.00
             334.80,725.28 317.56,723.13 306.00,723.00
             302.58,722.96 298.18,722.61 295.00,721.30
             292.20,720.15 290.21,718.03 288.00,718.01
             285.48,717.99 283.77,720.52 279.00,721.70
             272.45,723.31 253.58,724.03 248.10,720.26
             244.58,717.84 243.37,713.98 242.62,710.00
             241.86,705.98 242.00,703.02 242.00,699.00
             242.00,699.00 195.00,699.00 195.00,699.00
             178.99,699.03 185.16,707.54 170.00,715.68
             154.92,723.77 134.72,723.19 118.00,723.00
             112.83,722.94 103.24,722.42 99.65,718.47
             95.67,714.09 96.00,704.62 96.00,699.00 Z" />
</svg>
